<svg width="131" height="50" viewBox="0 0 131 50" fill="none" xmlns="http://www.w3.org/2000/svg">
<path d="M46.4403 28.5716L42.1559 28.5575L42.7561 25.1675L46.6218 25.1954C47.2451 25.1861 47.7708 25.0373 48.1988 24.749C48.6361 24.4606 48.9805 24.084 49.2316 23.619C49.4829 23.1447 49.6458 22.6146 49.7201 22.0286C49.7851 21.5915 49.7899 21.1311 49.7341 20.6475C49.6875 20.1639 49.5386 19.75 49.2876 19.4059C49.0456 19.0524 48.6547 18.8571 48.1152 18.8199L45.1703 18.792L42.2397 35.7144H38.2483L41.7653 15.402L48.2965 15.4159C49.5341 15.4531 50.5761 15.7693 51.4226 16.3646C52.2786 16.9598 52.902 17.7504 53.2928 18.7362C53.6837 19.7128 53.8278 20.8009 53.7254 22.0007C53.6046 23.3493 53.2185 24.5118 52.5671 25.4885C51.9252 26.4649 51.0739 27.2275 50.0131 27.7763C48.9524 28.3159 47.7615 28.5809 46.4403 28.5716ZM59.3777 35.7144H55.6794L56.2934 32.3382L59.573 32.3663C60.6803 32.3756 61.5594 32.1478 62.2106 31.6825C62.862 31.2175 63.3505 30.5944 63.6761 29.8132C64.011 29.0228 64.2482 28.1299 64.3878 27.1347L64.8485 23.9537C64.9228 23.3679 64.974 22.7773 65.0018 22.1821C65.0297 21.5868 64.9785 21.0381 64.8485 20.5359C64.7182 20.0336 64.4576 19.6291 64.0667 19.3221C63.6854 19.0059 63.1178 18.8339 62.3642 18.806L58.5402 18.792L59.1404 15.402L62.5457 15.4159C63.7645 15.4438 64.8018 15.6949 65.6578 16.1693C66.5138 16.6436 67.1976 17.2807 67.7093 18.0805C68.2304 18.8804 68.5793 19.7872 68.7561 20.8009C68.9328 21.8147 68.9514 22.8796 68.8118 23.9956L68.3514 27.1485C68.1559 28.3482 67.8257 29.4692 67.3603 30.5109C66.8952 31.5525 66.2859 32.4639 65.5323 33.2451C64.788 34.0263 63.9041 34.6356 62.8806 35.0728C61.8571 35.5099 60.6896 35.7237 59.3777 35.7144ZM61.5268 15.402L58.01 35.7144H54.0186L57.5353 15.402H61.5268ZM77.1853 15.402L73.6686 35.7144H69.6771L73.1941 15.402H77.1853ZM81.8747 24.0375L81.2744 27.4137H74.0732L74.6735 24.0375H81.8747ZM84.1217 15.402L83.5214 18.792H75.5805L76.1666 15.402H84.1217ZM91.1692 25.9487H86.4661L86.7033 24.484L90.6112 24.498C91.4298 24.498 92.1555 24.3399 92.7882 24.0235C93.4303 23.7074 93.9467 23.2563 94.3373 22.6703C94.7374 22.0751 94.9747 21.3636 95.049 20.5359C95.1235 19.7918 95.0585 19.1547 94.8537 18.6246C94.6584 18.0852 94.3187 17.6713 93.835 17.383C93.3605 17.0947 92.737 16.9366 91.9648 16.9086L88.4618 16.8947L85.1823 35.7144H83.6053L87.1361 15.402L92.0207 15.4159C92.8115 15.4345 93.5094 15.5647 94.1141 15.8065C94.7281 16.0483 95.2305 16.3925 95.6213 16.8389C96.0215 17.2853 96.3052 17.8294 96.4726 18.4711C96.6493 19.1036 96.7098 19.8197 96.6541 20.6196C96.5703 21.4752 96.3285 22.2425 95.9283 22.9215C95.5375 23.6004 95.0166 24.1585 94.3652 24.5956C93.714 25.0235 92.9697 25.3025 92.1322 25.4325L91.1692 25.9487ZM89.3691 35.7144H84.1915L85.2938 34.2216L89.4388 34.2356C90.3042 34.2356 91.0623 34.0497 91.7137 33.6775C92.3649 33.2963 92.8858 32.7801 93.2767 32.1289C93.6768 31.478 93.9233 30.7292 94.0165 29.883C94.0815 29.2132 94.0303 28.5856 93.8628 27.9997C93.6954 27.4044 93.3884 26.9254 92.9418 26.5625C92.5045 26.1999 91.9136 25.9999 91.1692 25.9628L88.085 25.9487L88.3782 24.484L92.4392 24.498L92.6348 25.0421C93.3977 25.1909 94.0024 25.5163 94.449 26.0185C94.9049 26.5116 95.2212 27.1021 95.3979 27.7904C95.5749 28.4692 95.6351 29.162 95.5794 29.869C95.477 31.0223 95.1607 32.0406 94.6305 32.9242C94.1001 33.8078 93.3836 34.4961 92.4811 34.9889C91.588 35.4818 90.5507 35.7237 89.3691 35.7144ZM98.8173 28.9482L99.0126 27.3997C99.1336 26.5254 99.3475 25.6697 99.6545 24.8328C99.9617 23.9863 100.376 23.2191 100.897 22.5308C101.418 21.8333 102.05 21.2846 102.795 20.8846C103.548 20.4847 104.428 20.2987 105.432 20.3266C106.391 20.3545 107.172 20.587 107.777 21.0242C108.382 21.452 108.838 22.0147 109.145 22.7122C109.461 23.4004 109.661 24.1537 109.745 24.9723C109.838 25.7813 109.838 26.5859 109.745 27.3859L109.549 28.9482C109.429 29.804 109.214 30.6597 108.907 31.5151C108.6 32.3616 108.182 33.1289 107.651 33.817C107.13 34.5054 106.493 35.0542 105.739 35.4632C104.995 35.8632 104.125 36.0492 103.13 36.0213C102.171 35.9935 101.39 35.7608 100.785 35.3237C100.18 34.8773 99.7197 34.3101 99.4034 33.6218C99.0871 32.9242 98.887 32.1709 98.8032 31.3618C98.7196 30.5525 98.7241 29.748 98.8173 28.9482ZM100.562 27.3859L100.352 28.9761C100.297 29.5342 100.278 30.134 100.297 30.7759C100.324 31.4082 100.431 32.0082 100.617 32.5754C100.804 33.1428 101.106 33.6125 101.525 33.9844C101.943 34.3473 102.516 34.5425 103.241 34.5704C104.023 34.5982 104.697 34.4497 105.265 34.1239C105.832 33.7892 106.302 33.3428 106.674 32.7847C107.047 32.2268 107.34 31.6128 107.554 30.9432C107.777 30.2735 107.926 29.6085 108 28.9482L108.224 27.3718C108.289 26.8137 108.303 26.2185 108.265 25.5861C108.238 24.9537 108.13 24.3537 107.944 23.7864C107.758 23.2191 107.456 22.7494 107.037 22.3774C106.619 22.0054 106.046 21.8054 105.321 21.7775C104.558 21.7496 103.897 21.9031 103.339 22.2379C102.781 22.5727 102.311 23.0238 101.929 23.5911C101.548 24.1492 101.246 24.763 101.022 25.4325C100.799 26.093 100.646 26.744 100.562 27.3859ZM117.183 14.2859L113.443 35.7144H111.936L115.662 14.2859H117.183ZM125.04 20.6196L124.789 22.0147H118.495L118.76 20.6196H125.04ZM121.663 16.7552H123.212L120.63 32.0592C120.603 32.3568 120.589 32.6918 120.589 33.0637C120.589 33.4266 120.663 33.7473 120.812 34.0263C120.961 34.2961 121.24 34.4356 121.649 34.4449C121.835 34.4542 122.017 34.4497 122.193 34.4308C122.37 34.403 122.552 34.3751 122.738 34.3473L122.654 35.7701C122.412 35.8354 122.17 35.8866 121.928 35.9237C121.696 35.9608 121.468 35.9749 121.244 35.9656C120.528 35.9563 120.007 35.7423 119.681 35.3237C119.365 34.9054 119.174 34.3937 119.109 33.7892C119.044 33.1754 119.044 32.5894 119.109 32.0313L121.663 16.7552Z" fill="black"/>
<path d="M12.0665 44.6286C10.6945 46.425 9.34871 48.1957 8.00023 49.9648C7.9867 49.9824 7.93789 49.9755 7.76593 50C10.2734 43.4386 12.7574 36.9381 15.2605 30.3881C10.1703 30.3881 5.14718 30.3881 0 30.3881C7.76652 20.2066 15.4734 10.1033 23.1803 0C23.2274 0.0248979 23.2744 0.049796 23.3214 0.074694C20.8217 6.61526 18.3219 13.1558 15.803 19.7466C20.8634 19.7466 25.8536 19.7466 30.8434 19.7466C30.8835 19.785 30.9235 19.8235 30.9635 19.862C24.685 28.1171 18.3933 36.3631 12.0665 44.6286Z" fill="#0099FF"/>
</svg>
